
      <svg width="550" height="180" viewBox="0 0 550 180" fill="none" xmlns="http://www.w3.org/2000/svg">
        
      <defs>
        <linearGradient id="gold-gradient-export" x1="0%" y1="0%" x2="100%" y2="100%">
          <stop offset="0%" stop-color="#fbbf24"></stop>
          <stop offset="50%" stop-color="#f59e0b"></stop>
          <stop offset="100%" stop-color="#d97706"></stop>
        </linearGradient>
        <linearGradient id="j-green-gradient-export" x1="0%" y1="0%" x2="0%" y2="100%">
          <stop offset="0%" stop-color="#4ade80"></stop>
          <stop offset="100%" stop-color="#22c55e"></stop>
        </linearGradient>
        
        <filter id="glow-export" x="-20%" y="-20%" width="140%" height="140%">
          <feGaussianBlur stdDeviation="1.5" result="coloredBlur"></feGaussianBlur>
          <feMerge>
            <feMergeNode in="coloredBlur"></feMergeNode>
            <feMergeNode in="SourceGraphic"></feMergeNode>
          </feMerge>
        </filter>
        <filter id="green-glow-export" x="-20%" y="-20%" width="140%" height="140%">
          <feGaussianBlur stdDeviation="2" result="coloredBlur"></feGaussianBlur>
          <feMerge>
            <feMergeNode in="coloredBlur"></feMergeNode>
            <feMergeNode in="SourceGraphic"></feMergeNode>
          </feMerge>
        </filter>
      </defs>
      
      <g opacity="0.95" filter="url(#green-glow-export)">
        <rect x="25" y="70" width="9" height="25" fill="#15803d" rx="1"></rect>
        <rect x="38" y="60" width="9" height="35" fill="#16a34a" rx="1"></rect>
        <rect x="51" y="48" width="9" height="47" fill="#22c55e" rx="1"></rect>
        <rect x="64" y="38" width="9" height="57" fill="#4ade80" rx="1"></rect>
        <path d="M 68 33 L 78 20 L 88 33 L 83 33 L 83 43 L 73 43 L 73 33 Z" fill="url(#gold-gradient-export)"></path>
      </g>
      
      <g filter="url(#green-glow-export)">
        <path d="M 95 35 L 118 35 L 118 82 Q 118 95 106.5 95 Q 95 95 95 82 L 95 78 L 105 78 L 105 82 Q 105 85 106.5 85 Q 108 85 108 82 L 108 35" fill="url(#j-green-gradient-export)"></path>
      </g>
      
      <path d="M 133 35 L 166 35 Q 179 35 179 47 Q 179 54 173 57.5 Q 180 61 180 70 Q 180 82 166 82 L 133 82 Z M 146 44 L 146 53 L 162 53 Q 167 53 167 48.5 Q 167 44 162 44 Z M 146 62 L 146 73 L 163 73 Q 168 73 168 67.5 Q 168 62 163 62 Z" fill="url(#gold-gradient-export)" filter="url(#glow-export)"></path>
      
      <path d="M 192 35 L 225 35 Q 238 35 238 47 Q 238 57 225 59 L 241 82 L 226 82 L 212 61 L 205 61 L 205 82 L 192 82 Z M 205 44 L 205 52 L 220 52 Q 225 52 225 48 Q 225 44 220 44 Z" fill="url(#gold-gradient-export)" filter="url(#glow-export)"></path>
      
      <g fill="url(#gold-gradient-export)" filter="url(#glow-export)">
        <rect x="262" y="35" width="13" height="20" rx="1.5"></rect>
        <path d="M 252 82 L 259 60 L 288 60 L 295 82 L 281 82 L 279.5 74 L 267.5 74 L 266 82 Z M 270 66 L 277 66 L 273.5 50 Z"></path>
      </g>
      
      <path d="M 307 35 L 321 35 L 334 72 L 347 35 L 361 35 L 341 82 L 328 82 Z" fill="url(#gold-gradient-export)" filter="url(#glow-export)"></path>
      
      <g transform="translate(365, 35)">
        <ellipse cx="18" cy="23.5" rx="18" ry="23.5" fill="#0d1117" stroke="url(#gold-gradient-export)" stroke-width="3"></ellipse>
        <ellipse cx="18" cy="23.5" rx="15" ry="20" fill="#1a1f2e"></ellipse>
        <ellipse cx="18" cy="21" rx="11" ry="6" fill="#0a0e14" opacity="0.9"></ellipse>
        <g opacity="0.95">
          <rect x="10" y="19" width="2" height="5" fill="#15803d" rx="0.3"></rect>
          <rect x="13" y="17.5" width="2" height="7" fill="#22c55e" rx="0.3"></rect>
          <rect x="21" y="17.5" width="2" height="7" fill="#dc2626" rx="0.3"></rect>
          <rect x="24" y="19" width="2" height="5" fill="#ef4444" rx="0.3"></rect>
        </g>
        <line x1="18" y1="-2" x2="18" y2="2" stroke="url(#gold-gradient-export)" stroke-width="1.5" stroke-linecap="round"></line>
        <circle cx="18" cy="-2" r="2" fill="#22c55e" opacity="0.9"></circle>
        <line x1="10" y1="30" x2="26" y2="30" stroke="#f59e0b" stroke-width="1.5" stroke-linecap="round" opacity="0.6"></line>
        <circle cx="18" cy="38" r="1.5" fill="#22c55e" opacity="0.8"></circle>
      </g>
      
      <text x="133" y="115" fill="url(#gold-gradient-export)" font-size="18" font-weight="700" letter-spacing="12" font-family="system-ui, -apple-system, 'Segoe UI', sans-serif">TRADING BOT</text>
    
      </svg>
    